<?xml version="1.0" encoding="utf-8"?><svg width="50" height="46" viewBox="0 0 50 46" xmlns="http://www.w3.org/2000/svg" xmlns:xlink="http://www.w3.org/1999/xlink"><view id="bag" viewBox="20 26 18 18"/><svg viewBox="0 0 18 18" width="18" height="18" x="20" y="26" xmlns="http://www.w3.org/2000/svg"><path d="M15 5h-3V4c0-1.1-.9-2-2-2H8c-1.1 0-2 .9-2 2v1H3C1.3 5 0 6.3 0 8v6c0 1.7 1.3 3 3 3h12c1.7 0 3-1.3 3-3V8c0-1.7-1.3-3-3-3zM5 16H3V6h2v10zm6-11H7V3h4v2zm4 11h-2V6h2v10z"/></svg><view id="caravan" viewBox="26 0 24 24"/><svg viewBox="0 0 24 24" width="24" height="24" x="26" xmlns="http://www.w3.org/2000/svg"><circle cx="13" cy="20" r="2"/><path d="M17 4h-3.3C7.4 4 2.2 9.1 2.2 15.4v.1c.1 1.4.8 2.7 1.8 3.5H0v1h6v-.1c.3.1.7.1 1 .1h2c.1-2 1.7-3.7 3.7-3.7 2.1 0 3.8 1.6 3.9 3.7h4.5c1.6 0 2.9-1.3 2.9-2.8V11c0-3.9-3.1-7-7-7zm-1 7.9c.1 1-.7 2-1.7 2.1H9c-1 .1-1.9-.7-2-1.8v-.3C7 9.4 8.5 7 11 7h3c1.2 0 2 1.3 2 2.6v2.3zm4.4 7.1H20c-1.1-.1-1.9-.9-2-2V8c0-.8 1.2-1 2-1 1.2 0 2 1.8 2 3l-.1 7.1c.1.9-.6 1.8-1.5 1.9z"/></svg><view id="key" viewBox="0 0 26 26"/><svg viewBox="0 0 26 26" width="26" height="26" xmlns="http://www.w3.org/2000/svg"><path d="M22 10l-10.9.1c-1-1.8-2.9-3-5.1-3.1-3.4.1-6.1 3.1-6 6.5-.1 3.4 2.6 6.4 6 6.5 2.2-.1 4.1-1.3 5.1-3h2.6v-.1l2-3.4L17 17h2l1.2-3.5L22 17v.1h1.1L26 14l-4-4zM7 13.7C6.9 15 5.8 16 4.5 16 3.1 16 2 14.9 2 13.5S3.1 11 4.5 11c1.3 0 2.4 1.1 2.5 2.4v.3z"/></svg><view id="wigwam" viewBox="0 26 20 20"/><svg viewBox="0 0 20 20" width="20" height="20" y="26" xmlns="http://www.w3.org/2000/svg"><path d="M0 19h7l3-11 1 11h9L10.3 1 0 19z"/></svg></svg>