<?xml version="1.0" encoding="utf-8"?>
<!-- Generator: Adobe Illustrator 19.2.1, SVG Export Plug-In . SVG Version: 6.00 Build 0)  -->
<svg version="1.1" id="Layer_1" xmlns="http://www.w3.org/2000/svg" xmlns:xlink="http://www.w3.org/1999/xlink" x="0px" y="0px"
	 viewBox="0 0 18 18" style="enable-background:new 0 0 18 18;" xml:space="preserve">
<path d="M15,5h-3V4c0-1.1-0.9-2-2-2H8C6.9,2,6,2.9,6,4v1H3C1.3,5,0,6.3,0,8v6c0,1.7,1.3,3,3,3h12c1.7,0,3-1.3,3-3V8
	C18,6.3,16.7,5,15,5z M5,16H3V6h2V16z M11,5H7V3h4V5z M15,16h-2V6h2V16z"/>
</svg>
