<?xml version="1.0" encoding="utf-8"?>
<!-- Generator: Adobe Illustrator 19.2.1, SVG Export Plug-In . SVG Version: 6.00 Build 0)  -->
<svg version="1.1" id="Layer_1" xmlns="http://www.w3.org/2000/svg" xmlns:xlink="http://www.w3.org/1999/xlink" x="0px" y="0px"
	 viewBox="0 0 24 24" style="enable-background:new 0 0 24 24;" xml:space="preserve">
<circle cx="13" cy="20" r="2"/>
<g>
	<path d="M17,4h-3.3c0,0,0,0,0,0C7.4,4,2.2,9.1,2.2,15.4c0,0,0,0.1,0,0.1C2.3,16.9,3,18.2,4,19H0v1h6v-0.1C6.3,20,6.7,20,7,20h2
		c0.1-2,1.7-3.7,3.7-3.7l0,0c2.1,0,3.8,1.6,3.9,3.7H21c0,0,0.1,0,0.1,0c1.6,0,2.9-1.3,2.9-2.8V11C24,7.1,20.9,4,17,4z M16,11.9
		c0.1,1-0.7,2-1.7,2.1c-0.1,0-0.2,0-0.3,0H9c-1,0.1-1.9-0.7-2-1.8c0-0.1,0-0.2,0-0.3C7,9.4,8.5,7,11,7h3c1.2,0,2,1.3,2,2.6V11.9z
		 M20.4,19c-0.1,0-0.3,0-0.4,0c-1.1-0.1-1.9-0.9-2-2V8c0-0.8,1.2-1,2-1c1.2,0,2,1.8,2,3l-0.1,7.1C22,18,21.3,18.9,20.4,19z"/>
</g>
</svg>
